<svg id="Capa_1" data-name="Capa 1" xmlns="http://www.w3.org/2000/svg" viewBox="0 0 150 150"><defs><style>.cls-1{fill:#430d21;}</style></defs><path class="cls-1" d="M150,59.84c-1.39,1.67-2.82,3.31-4.17,5-7.83,9.84-17.42,17-30.12,19.6,8.66,19,9.76,39.3,13,59.71-3.9.54-7.44,1.19-11,1.38-.68,0-1.94-1.71-2.12-2.77-2.17-12.55-4.18-25.12-6.26-37.68a30.34,30.34,0,0,0-.84-3.07H107c-2.09,14.4-4.17,28.81-6.3,43.57l-12.39-1.11C91,123.86,91.53,103.26,100.68,84c-14-3.83-24.5-12.87-33.94-24.26l9.19-7.61c3.6,3.33,6.92,6.59,10.43,9.61,7.82,6.73,16.41,11.77,27.29,9.92C123,70,129.85,64.3,135.54,57c1.11-1.41,2.14-2.89,3.22-4.36L150,58.28Z"/><path class="cls-1" d="M111.68,45l2.82,2a10.36,10.36,0,0,1,4,11.64,10.57,10.57,0,0,1-10,7.3A10.45,10.45,0,0,1,98.71,59a10.33,10.33,0,0,1,3.56-11.79c1-.76,2.1-1.45,3.16-2.18Z"/><path class="cls-1" d="M34.07,85.86C23.91,89.51,17.34,96.3,11.73,104.62L.94,98.22C19.8,64.34,60.5,64,83.67,97.57L74,105.46c-6.3-7.38-12.86-13.94-22.26-18.33,7.07,18.67,8.7,37.65,11.51,57.06-3.88.53-7.54,1.2-11.22,1.35-.64,0-1.76-2.15-2-3.43-2.17-12.54-4.18-25.1-6.27-37.66a3.6,3.6,0,0,0-1.61-2.4c-.28,1.16-.64,2.31-.81,3.49-1.75,12.08-3.62,24.15-5.07,36.27-.4,3.38-1.53,4.13-4.62,3.53-2.65-.51-5.38-.6-8.66-.93C25.21,124.69,26.63,105.19,34.07,85.86Z"/><path class="cls-1" d="M43.08,67.45a10.4,10.4,0,1,1-.39-20.79,10.4,10.4,0,0,1,.39,20.79Z"/></svg>