<?xml version="1.0" encoding="utf-8"?>
<!-- Generator: Adobe Illustrator 24.3.0, SVG Export Plug-In . SVG Version: 6.00 Build 0)  -->
<svg version="1.1" id="Capa_1" xmlns="http://www.w3.org/2000/svg" xmlns:xlink="http://www.w3.org/1999/xlink" x="0px" y="0px"
	 viewBox="0 0 150 150" style="enable-background:new 0 0 150 150;" xml:space="preserve">
<style type="text/css">
	.st0{fill:#430D21;}
</style>
<path class="st0" d="M3.7,130.4l49.5,0.2c2,0.1,4-0.1,6-0.4c-16.6-4.6-30-13.6-41.3-26.7l10.9-8.9c12.4,13.7,27.3,23,46.4,22.9
	s34-9.2,47-23l10.9,9c-11.5,12.9-25.2,22-41.7,27h55.3v14.9H3.7V130.4z"/>
<path class="st0" d="M62.7,94.6c0.1-7.4,6.2-13.2,13.5-13.1c7.1,0.1,12.9,5.8,13.1,12.9c-0.1,7.4-6.2,13.2-13.5,13.1
	C68.7,107.4,62.9,101.7,62.7,94.6z"/>
</svg>
