<svg width="44" height="43" viewBox="0 0 44 43" fill="none" xmlns="http://www.w3.org/2000/svg">
<path d="M43.4045 35.7468V42.8716H0V35.7468H5.44504C2.05669 31.9539 0 26.9611 0 21.4908C0 9.6223 9.68514 0 21.6347 0C25.1685 0 28.5049 0.840783 31.4507 2.33343L28.1767 8.8002C26.2155 7.79956 23.9906 7.23696 21.6347 7.23696C13.7092 7.23696 7.28359 13.6186 7.28359 21.4929C7.28359 29.3672 13.7092 35.7488 21.6347 35.7488H43.4024L43.4045 35.7468Z" fill="#EFE3D9"/>
<path d="M38.5681 31.985C41.075 31.985 43.1073 29.9541 43.1073 27.4489C43.1073 24.9437 41.075 22.9129 38.5681 22.9129C36.0611 22.9129 34.0288 24.9437 34.0288 27.4489C34.0288 29.9541 36.0611 31.985 38.5681 31.985Z" fill="#EFE3D9"/>
</svg>
