<svg id="Capa_1" data-name="Capa 1" xmlns="http://www.w3.org/2000/svg" viewBox="0 0 150 150"><defs><style>.cls-1{fill:#430d21;}</style></defs><path class="cls-1" d="M68.64,95.52C46.9,77,43.53,59.73,51.2,35.37L63.83,41C63,45,62,48.61,61.56,52.31c-1.32,10.45,1.66,19.41,9.61,26.58,11.39,10.27,26.71,7.83,34.2-5.6,4.37-7.86,4.42-16.22,2.38-24.73-.41-1.68-.89-3.33-1.43-5.33L119.54,38C124,49.33,125.41,60.44,121.77,72S110.53,92,99.31,97.48c16.49,12.11,19,29.44,20.14,48-4.56,0-8.56.17-12.54-.13-.82-.07-2-1.77-2.2-2.88-1.35-6.44-1.84-13.12-3.82-19.34-4.06-12.7-12.85-17.25-25.8-14.07a49.58,49.58,0,0,0-26.25,16.56C43,132.53,38.1,140.32,32.69,147.84L20.35,142C30.84,120.67,45.29,103.82,68.64,95.52Z"/><path class="cls-1" d="M87.9,76.89a9.45,9.45,0,0,1-9.48-9.47,9.43,9.43,0,0,1,18.86-.11A9.44,9.44,0,0,1,87.9,76.89Z"/></svg>